<mxfile host="app.diagrams.net" agent="Mozilla/5.0 (Windows NT 10.0; Win64; x64) AppleWebKit/537.36 (KHTML, like Gecko) Chrome/126.0.0.0 Safari/537.36" version="24.7.6">
  <diagram name="第 1 页" id="7Om6o-WO4HEuYXvUx-Oh">
    <mxGraphModel dx="1147" dy="737" grid="1" gridSize="10" guides="1" tooltips="1" connect="1" arrows="1" fold="1" page="1" pageScale="1" pageWidth="827" pageHeight="1169" math="0" shadow="0">
      <root>
        <mxCell id="0" />
        <mxCell id="1" parent="0" />
        <mxCell id="aWvWVetxjmr20OH63ybd-25" value="" style="group" parent="1" vertex="1" connectable="0">
          <mxGeometry x="60" y="70" width="210" height="550" as="geometry" />
        </mxCell>
        <mxCell id="aWvWVetxjmr20OH63ybd-26" value="Saas平台" style="rounded=0;whiteSpace=wrap;html=1;fillColor=#e1d5e7;strokeColor=#9673a6;" parent="aWvWVetxjmr20OH63ybd-25" vertex="1">
          <mxGeometry width="80" height="40" as="geometry" />
        </mxCell>
        <mxCell id="aWvWVetxjmr20OH63ybd-27" value="" style="endArrow=classic;html=1;rounded=0;" parent="aWvWVetxjmr20OH63ybd-25" edge="1">
          <mxGeometry width="50" height="50" relative="1" as="geometry">
            <mxPoint y="70" as="sourcePoint" />
            <mxPoint x="200" y="70" as="targetPoint" />
            <Array as="points" />
          </mxGeometry>
        </mxCell>
        <mxCell id="aWvWVetxjmr20OH63ybd-28" value="&lt;font style=&quot;font-size: 12px;&quot;&gt;1：下发创建人像库请求&lt;/font&gt;" style="edgeLabel;html=1;align=center;verticalAlign=middle;resizable=0;points=[];" parent="aWvWVetxjmr20OH63ybd-27" vertex="1" connectable="0">
          <mxGeometry x="-0.12" y="-4" relative="1" as="geometry">
            <mxPoint y="-14" as="offset" />
          </mxGeometry>
        </mxCell>
        <mxCell id="aWvWVetxjmr20OH63ybd-71" value="人像库 ID" style="html=1;verticalAlign=bottom;endArrow=open;dashed=1;endSize=8;curved=0;rounded=0;" parent="aWvWVetxjmr20OH63ybd-25" edge="1">
          <mxGeometry relative="1" as="geometry">
            <mxPoint x="200" y="360" as="sourcePoint" />
            <mxPoint y="360" as="targetPoint" />
          </mxGeometry>
        </mxCell>
        <mxCell id="aWvWVetxjmr20OH63ybd-29" value="" style="group" parent="1" vertex="1" connectable="0">
          <mxGeometry x="414" y="70" width="81" height="550" as="geometry" />
        </mxCell>
        <mxCell id="aWvWVetxjmr20OH63ybd-30" value="CV-RM" style="rounded=0;whiteSpace=wrap;html=1;fillColor=#ffe6cc;strokeColor=#d79b00;" parent="aWvWVetxjmr20OH63ybd-29" vertex="1">
          <mxGeometry width="81" height="40" as="geometry" />
        </mxCell>
        <mxCell id="aWvWVetxjmr20OH63ybd-33" value="" style="group" parent="1" vertex="1" connectable="0">
          <mxGeometry x="570" y="70" width="70" height="550" as="geometry" />
        </mxCell>
        <mxCell id="aWvWVetxjmr20OH63ybd-34" value="MySQL" style="rounded=0;whiteSpace=wrap;html=1;fillColor=#d5e8d4;strokeColor=#82b366;" parent="aWvWVetxjmr20OH63ybd-33" vertex="1">
          <mxGeometry width="70" height="40" as="geometry" />
        </mxCell>
        <mxCell id="aWvWVetxjmr20OH63ybd-39" value="" style="group" parent="1" vertex="1" connectable="0">
          <mxGeometry x="210" y="70" width="100" height="550" as="geometry" />
        </mxCell>
        <mxCell id="aWvWVetxjmr20OH63ybd-40" value="CV-Perception" style="rounded=0;whiteSpace=wrap;html=1;fillColor=#fff2cc;strokeColor=#d6b656;" parent="aWvWVetxjmr20OH63ybd-39" vertex="1">
          <mxGeometry width="100" height="40" as="geometry" />
        </mxCell>
        <mxCell id="aWvWVetxjmr20OH63ybd-41" value="2.判断是否已存在" style="html=1;align=left;spacingLeft=2;endArrow=block;rounded=0;edgeStyle=orthogonalEdgeStyle;curved=0;rounded=0;" parent="aWvWVetxjmr20OH63ybd-39" edge="1">
          <mxGeometry x="-0.2308" relative="1" as="geometry">
            <mxPoint x="50" y="80" as="sourcePoint" />
            <Array as="points">
              <mxPoint x="80" y="80" />
              <mxPoint x="80" y="110" />
              <mxPoint x="50" y="110" />
            </Array>
            <mxPoint x="50" y="130" as="targetPoint" />
            <mxPoint as="offset" />
          </mxGeometry>
        </mxCell>
        <mxCell id="aWvWVetxjmr20OH63ybd-66" value="3. 插入数据表 Repository" style="html=1;verticalAlign=bottom;endArrow=block;curved=0;rounded=0;" parent="aWvWVetxjmr20OH63ybd-39" edge="1">
          <mxGeometry width="80" relative="1" as="geometry">
            <mxPoint x="50" y="150" as="sourcePoint" />
            <mxPoint x="400" y="150" as="targetPoint" />
          </mxGeometry>
        </mxCell>
        <mxCell id="aWvWVetxjmr20OH63ybd-67" value="7. 将对应库信息保存到内存Cache中" style="html=1;align=left;spacingLeft=2;endArrow=block;rounded=0;edgeStyle=orthogonalEdgeStyle;curved=0;rounded=0;" parent="aWvWVetxjmr20OH63ybd-39" edge="1">
          <mxGeometry relative="1" as="geometry">
            <mxPoint x="50" y="290" as="sourcePoint" />
            <Array as="points">
              <mxPoint x="80" y="320" />
            </Array>
            <mxPoint x="50" y="320" as="targetPoint" />
          </mxGeometry>
        </mxCell>
        <mxCell id="aWvWVetxjmr20OH63ybd-50" value="CV-Perception" style="rounded=0;whiteSpace=wrap;html=1;fillColor=#fff2cc;strokeColor=#d6b656;" parent="1" vertex="1">
          <mxGeometry x="210" y="462" width="100" height="36" as="geometry" />
        </mxCell>
        <mxCell id="aWvWVetxjmr20OH63ybd-51" style="edgeStyle=orthogonalEdgeStyle;rounded=0;orthogonalLoop=1;jettySize=auto;html=1;exitX=0.5;exitY=1;exitDx=0;exitDy=0;entryX=0.5;entryY=0;entryDx=0;entryDy=0;endArrow=none;endFill=0;dashed=1;" parent="1" source="aWvWVetxjmr20OH63ybd-40" target="aWvWVetxjmr20OH63ybd-50" edge="1">
          <mxGeometry relative="1" as="geometry" />
        </mxCell>
        <mxCell id="aWvWVetxjmr20OH63ybd-52" value="Saas平台" style="rounded=0;whiteSpace=wrap;html=1;fillColor=#e1d5e7;strokeColor=#9673a6;" parent="1" vertex="1">
          <mxGeometry x="20" y="462" width="80" height="36" as="geometry" />
        </mxCell>
        <mxCell id="aWvWVetxjmr20OH63ybd-53" style="edgeStyle=orthogonalEdgeStyle;rounded=0;orthogonalLoop=1;jettySize=auto;html=1;entryX=0.5;entryY=0;entryDx=0;entryDy=0;endArrow=none;endFill=0;dashed=1;" parent="1" target="aWvWVetxjmr20OH63ybd-52" edge="1">
          <mxGeometry relative="1" as="geometry">
            <mxPoint x="60" y="110" as="sourcePoint" />
          </mxGeometry>
        </mxCell>
        <mxCell id="aWvWVetxjmr20OH63ybd-54" value="CV-RM" style="rounded=0;whiteSpace=wrap;html=1;fillColor=#ffe6cc;strokeColor=#d79b00;" parent="1" vertex="1">
          <mxGeometry x="414" y="462" width="81" height="36" as="geometry" />
        </mxCell>
        <mxCell id="aWvWVetxjmr20OH63ybd-55" style="edgeStyle=orthogonalEdgeStyle;rounded=0;orthogonalLoop=1;jettySize=auto;html=1;exitX=0.5;exitY=1;exitDx=0;exitDy=0;entryX=0.5;entryY=0;entryDx=0;entryDy=0;endArrow=none;endFill=0;dashed=1;" parent="1" source="aWvWVetxjmr20OH63ybd-30" target="aWvWVetxjmr20OH63ybd-54" edge="1">
          <mxGeometry relative="1" as="geometry" />
        </mxCell>
        <mxCell id="aWvWVetxjmr20OH63ybd-58" value="MySQL" style="rounded=0;whiteSpace=wrap;html=1;fillColor=#d5e8d4;strokeColor=#82b366;" parent="1" vertex="1">
          <mxGeometry x="570" y="461" width="70" height="40" as="geometry" />
        </mxCell>
        <mxCell id="aWvWVetxjmr20OH63ybd-59" style="edgeStyle=orthogonalEdgeStyle;rounded=0;orthogonalLoop=1;jettySize=auto;html=1;exitX=0.5;exitY=1;exitDx=0;exitDy=0;entryX=0.5;entryY=0;entryDx=0;entryDy=0;endArrow=none;endFill=0;dashed=1;" parent="1" source="aWvWVetxjmr20OH63ybd-34" target="aWvWVetxjmr20OH63ybd-58" edge="1">
          <mxGeometry relative="1" as="geometry" />
        </mxCell>
        <mxCell id="aWvWVetxjmr20OH63ybd-43" value="4，请求对应库类型的资源信息" style="html=1;verticalAlign=bottom;startArrow=oval;startFill=1;endArrow=block;startSize=8;curved=0;rounded=0;" parent="1" edge="1">
          <mxGeometry width="60" relative="1" as="geometry">
            <mxPoint x="260" y="270" as="sourcePoint" />
            <mxPoint x="450" y="270" as="targetPoint" />
          </mxGeometry>
        </mxCell>
        <mxCell id="aWvWVetxjmr20OH63ybd-44" value="5.返回资源信息" style="html=1;verticalAlign=bottom;endArrow=open;dashed=1;endSize=8;curved=0;rounded=0;" parent="1" edge="1">
          <mxGeometry relative="1" as="geometry">
            <mxPoint x="450" y="300" as="sourcePoint" />
            <mxPoint x="260" y="300" as="targetPoint" />
            <mxPoint as="offset" />
          </mxGeometry>
        </mxCell>
        <mxCell id="aWvWVetxjmr20OH63ybd-45" value="6.将人像库与其对应的资源写入到数据表 Repository_Resource" style="html=1;verticalAlign=bottom;endArrow=block;curved=0;rounded=0;" parent="1" edge="1">
          <mxGeometry width="80" relative="1" as="geometry">
            <mxPoint x="260" y="340" as="sourcePoint" />
            <mxPoint x="600" y="340" as="targetPoint" />
          </mxGeometry>
        </mxCell>
      </root>
    </mxGraphModel>
  </diagram>
</mxfile>
